<svg width="24" height="24" viewBox="0 0 24 24" fill="none" xmlns="http://www.w3.org/2000/svg">
<path d="M6.78261 4C5.82609 4 5.04348 4.78261 5.04348 5.73913V10.5C4.88043 10.3465 4.74592 10.2147 4.67799 10.1467L4.63859 10.106C4.57473 10.0462 4.44837 10.0136 4.36821 10.0136C4.12772 10.0136 4 10.1372 4 10.2609C4.00136 10.5476 4.1087 10.769 4.13315 10.8261C4.48913 11.6943 6.07065 13.3764 7.27174 13.8261C6.90761 14.5543 6.90761 16.3723 6.90761 16.3723C6.90761 17.9321 8.0788 19.2283 9.67935 19.2826H10.1997C11 19.2283 11.6399 18.5883 11.6359 17.788V14.7459C11.7826 14.8084 12.0503 14.8723 12.3641 14.8981V17.8424C12.3641 18.6372 13.0095 19.2826 13.8043 19.2826H14.356C15.9416 19.2826 17.0924 17.9986 17.0924 16.3723C17.0924 16.3723 17.0924 14.5543 16.7283 13.8261C17.8315 13.3641 19.3478 11.8383 19.8478 10.9185C19.8791 10.8614 20 10.5462 20 10.1916C20 10.106 19.9226 9.90489 19.6807 9.90489C19.5122 9.90489 19.3967 10.0543 19.3967 10.0543C19.3179 10.1332 19.1603 10.2935 18.9565 10.4823V5.73913C18.9565 4.78261 18.1739 4 17.2174 4H6.78261ZM6.78261 4.69565H17.2174C17.7976 4.69565 18.2609 5.15897 18.2609 5.73913V11.0652C17.4361 11.697 16.2568 12.3709 14.909 12.3709H13.2989C12.7704 12.3709 12.3641 12.8193 12.3641 13.3071V13.5937C12.0435 13.4171 11.6807 13.1114 11.2717 12.6264C11.2717 12.6264 11.1128 12.3709 10.6793 12.3709H9.09103C7.71739 12.3709 6.54348 11.7024 5.73913 11.0883V5.73913C5.73913 5.15897 6.20245 4.69565 6.78261 4.69565ZM9.3913 7.82609C8.33424 7.82609 7.47826 8.68207 7.47826 9.73913C7.47826 10.7962 8.33424 11.6522 9.3913 11.6522C10.4484 11.6522 11.3043 10.7962 11.3043 9.73913C11.3043 8.68207 10.4484 7.82609 9.3913 7.82609ZM14.6087 7.82609C13.5516 7.82609 12.6957 8.68207 12.6957 9.73913C12.6957 10.7962 13.5516 11.6522 14.6087 11.6522C15.6658 11.6522 16.5217 10.7962 16.5217 9.73913C16.5217 8.68207 15.6658 7.82609 14.6087 7.82609Z" fill="#fff"/>
</svg>
