<svg width="24" height="24" viewBox="0 0 24 24" fill="none" xmlns="http://www.w3.org/2000/svg">
<path d="M18.362 8.23669C18.3717 8.37775 18.3717 8.5188 18.3717 8.66115C18.3717 12.9987 15.0697 18.0011 9.03173 18.0011V17.9985C7.2481 18.0011 5.50152 17.4902 4 16.5269C4.25935 16.5581 4.52001 16.5737 4.78131 16.5744C6.25944 16.5757 7.69531 16.0797 8.85818 15.1665C7.4535 15.1398 6.22173 14.2239 5.79143 12.8869C6.28349 12.9818 6.79049 12.9623 7.27345 12.8303C5.74203 12.5209 4.64026 11.1754 4.64026 9.61276C4.64026 9.59846 4.64026 9.58481 4.64026 9.57116C5.09657 9.82532 5.60748 9.96637 6.13008 9.98197C4.68771 9.01801 4.2431 7.09918 5.11412 5.59895C6.78074 7.64973 9.23973 8.89645 11.8794 9.02841C11.6149 7.88829 11.9763 6.69357 12.8291 5.89211C14.1512 4.64929 16.2306 4.71299 17.4734 6.03446C18.2086 5.88951 18.9132 5.61975 19.558 5.23755C19.3129 5.99741 18.8001 6.64287 18.115 7.05303C18.7656 6.97632 19.4013 6.80212 20 6.53627C19.5593 7.19668 19.0042 7.77194 18.362 8.23669Z" fill="white"/>
</svg>
