<svg width="24" height="24" viewBox="0 0 24 24" fill="none" xmlns="http://www.w3.org/2000/svg">
<path d="M19.8 7.87501C19.7014 7.51085 19.5088 7.17904 19.2414 6.9129C18.974 6.64676 18.6413 6.45565 18.2767 6.35877C16.9384 6.00018 11.5751 6.00018 11.5751 6.00018C11.5751 6.00018 6.21035 6.00018 4.87482 6.35877C4.51139 6.45647 4.18001 6.64797 3.9139 6.91408C3.64779 7.18019 3.45629 7.51157 3.35859 7.87501C3 9.21195 3 12.003 3 12.003C3 12.003 3 14.7941 3.35859 16.131C3.45629 16.4944 3.64779 16.8258 3.9139 17.0919C4.18001 17.358 4.51139 17.5495 4.87482 17.6472C6.21176 18.0002 11.5751 18.0002 11.5751 18.0002C11.5751 18.0002 16.9398 18.0002 18.2767 17.6416C18.6406 17.5452 18.9729 17.355 19.2402 17.0899C19.5075 16.8248 19.7006 16.4941 19.8 16.131C20.1572 14.7941 20.1572 12.003 20.1572 12.003C20.1572 12.003 20.1501 9.21195 19.8 7.87501ZM9.85977 14.5752V9.43077L14.3167 12.003L9.85977 14.5752Z" fill="#A0B4BE"/>
</svg>
