<svg width="148" height="22" viewBox="0 0 148 22" fill="none" xmlns="http://www.w3.org/2000/svg">
<path d="M59.436 18.5052V3.15581C59.4504 1.42751 62.3551 1.40364 62.3551 3.15581V17.2448C62.3551 18.2378 62.5653 19.102 63.8456 18.8824C68.5419 17.7556 68.9097 16.9106 70.3907 14.8385C71.695 12.6567 73.8018 13.8407 73.0613 15.4831C71.9578 17.7461 70.4529 19.2309 69.3445 19.9184C68.2934 20.5725 64.7199 21.9666 63.1147 21.9666C61.3422 21.9666 59.436 21.4414 59.436 18.5004V18.5052Z" fill="#1E3250"/>
<path d="M85.5303 11.0718C90.0402 10.7519 89.8825 13.4542 94.2587 13.8695C96.5949 14.0892 98.267 13.311 99.5664 11.6113C100.044 10.9859 100.422 10.0167 99.834 10.2506C96.098 11.7402 94.1058 8.86608 89.1277 9.42945C87.7661 9.69203 86.2899 10.5705 85.5303 11.0766V11.0718Z" fill="#1E3250"/>
<path d="M86.2181 11.0049V3.21326C86.2181 1.37992 83.4949 1.37992 83.4854 3.21326V20.2337C83.4901 22.5444 86.2181 22.5444 86.2181 20.2337C86.2181 19.4268 86.2181 14.1989 86.2181 11.0718" fill="#1E3250"/>
<path d="M115.71 3.2133V13.6595C115.71 15.7649 114.281 18.3765 110.985 19.1738C109.002 19.6035 109.542 22.2437 111.19 21.9811C115.715 21.2554 118.433 17.307 118.433 13.8314V3.2133C118.433 1.37042 115.715 1.37997 115.715 3.2133H115.71Z" fill="#1E3250"/>
<path d="M106.527 3.21345V13.1249C106.527 14.9726 109.246 14.8914 109.246 13.1249V3.21345C109.246 1.37057 106.527 1.38012 106.527 3.21345Z" fill="#1E3250"/>
<path d="M127.62 18.5579C129.027 17.167 129.886 15.4514 130.195 13.4112C130.51 11.3391 130.52 7.11389 130.577 4.72673C130.629 2.83611 133.3 2.82656 133.3 4.68376C133.3 6.54097 133.109 11.8739 132.827 14.156C132.287 18.5579 130.897 19.3886 129.583 20.4151C127.945 21.5991 126.306 19.699 127.62 18.5579Z" fill="#1E3250"/>
<path d="M139.725 3.93465C144.173 10.9767 144.269 12.5141 144.513 15.2545C144.551 17.3791 144.417 18.6777 144.145 19.7424C143.686 21.5184 140.815 21.4754 141.197 19.5466C141.632 16.9399 142.243 16.6295 141.713 13.6886C140.896 10.294 138.225 6.45071 137.719 5.70592C136.744 4.2784 138.464 2.66468 139.725 3.92988V3.93465Z" fill="#1E3250"/>
<path d="M141.231 1.75696L141.527 3.95792C141.742 5.57163 143.978 5.18969 143.772 3.64759L143.481 1.44663C143.271 -0.167081 141.03 0.214864 141.235 1.75696H141.231Z" fill="#1E3250"/>
<path d="M144.934 1.35146L145.225 3.55242C145.44 5.16613 147.676 4.78896 147.47 3.24686L147.174 1.04591C146.959 -0.567807 144.728 -0.185863 144.929 1.35624L144.934 1.35146Z" fill="#1E3250"/>
<path fill-rule="evenodd" clip-rule="evenodd" d="M20.7154 5.45672C30.9726 2.49187 39.8443 2.38684 40.7138 5.27052C41.6119 8.23536 33.7339 13.2341 23.128 16.4328C12.5172 19.6364 3.19642 19.8322 2.30304 16.8673C1.40488 13.9025 9.27812 8.90377 19.8889 5.70021C7.94044 9.30481 -0.926521 14.9385 0.081522 18.2757C1.08957 21.613 11.7433 22.0999 23.6917 18.4906C35.6401 14.8812 44.3542 8.55047 43.3462 5.20845C42.362 1.9476 32.315 2.08606 20.7154 5.45194V5.45672Z" fill="url(#paint0_linear_68_1509)"/>
<path d="M30.2415 17.0677C30.1651 17.2873 29.6825 17.5451 29.4007 17.5451C28.9229 17.5356 28.7653 17.9223 28.7271 18.6384C28.856 18.9965 30.3896 18.691 30.8721 18.3711C31.2018 18.1562 31.6031 17.7982 31.7082 17.378C31.8037 17.0152 31.8611 16.4805 31.6509 15.8168C31.2161 16.003 30.767 16.1845 30.3179 16.3707C30.3466 16.5807 30.3371 16.8051 30.2463 17.0629L30.2415 17.0677Z" fill="#1E3250"/>
<path d="M33.7339 14.862C33.2991 15.072 32.8596 15.2773 32.4058 15.4778C33.0221 15.8693 33.2132 16.4995 33.4472 16.9245C34.4171 18.6957 35.3057 17.5547 35.3296 17.2061C35.2436 17.039 34.8948 15.9648 34.7228 15.8789C34.3263 15.6879 34.0062 15.3012 33.7339 14.8572V14.862Z" fill="#1E3250"/>
<path d="M15.3645 4.02937C14.3995 3.89092 14.0364 3.66653 13.229 2.85012C13.2051 2.22468 12.0155 1.0884 11.4327 1.26505C9.93254 0.816265 9.3688 0.964268 8.53752 1.46557C8.22221 1.57538 8.13622 2.36791 7.62503 2.51114C6.77942 2.74508 6.32556 2.65915 5.71405 3.02199C5.68538 3.05541 5.58028 3.27026 5.70927 3.466C5.85259 3.8193 6.28257 4.1917 6.41633 4.34448C6.37812 4.39222 6.05802 4.57364 6.16313 4.79326C6.29212 4.88397 6.66954 5.10359 6.69343 5.13701C6.75076 5.20863 6.90363 5.3614 7.10429 5.42347C9.67934 5.80541 9.81788 5.05585 10.2526 6.9608C10.4724 7.92521 10.8211 8.58883 11.5139 9.32408C11.5139 9.32408 11.834 9.58667 11.5808 9.75377C11.4231 9.8588 11.0935 10.0259 10.6778 10.0116C9.94687 10.2025 9.06782 10.384 8.4372 10.8089C7.65847 11.2386 7.36705 11.7733 7.2715 12.0741C6.95619 13.6591 7.59159 13.8549 7.92601 13.8024C8.37987 13.7833 8.80028 13.6019 8.57574 12.7138C8.59963 12.3176 9.1777 11.8879 9.97554 11.9308C10.138 11.9404 11.0839 11.7494 11.2989 11.5776C10.4198 12.5467 9.11082 13.1483 9.00571 14.2703C8.90061 14.953 8.80984 16.4712 10.0424 16.2325C10.3721 16.1704 10.5584 16.1704 10.673 15.5832C10.7304 15.2824 10.4772 15.1774 10.4294 14.8909C10.3912 13.7451 11.0791 13.7069 11.5282 13.5016C11.8005 13.3775 12.3356 12.9478 12.971 12.8714C13.6924 12.7854 14.6001 12.7759 15.3215 12.3271C15.8327 12.4799 17.0032 12.5324 17.4379 12.499C20.8586 12.203 22.975 9.71557 25.1726 12.9239C25.7459 13.7546 26.4291 14.2989 27.2604 14.6188C28.8847 14.0124 30.4278 13.3679 31.8515 12.6995C31.8181 12.69 31.7894 12.6852 31.756 12.6756C29.6491 12.1839 29.2287 10.5511 28.4117 8.95646C28.5646 9.09491 28.8752 9.19517 29.2621 9.3193C33.3994 10.6227 34.5412 9.68215 35.6496 8.40741C36.027 7.96817 36.285 7.23293 35.8455 7.40481C33.0507 8.49812 31.5601 6.43562 27.8432 6.85099C25.5023 5.66219 23.577 5.60489 21.6182 5.52373C20.013 5.45689 17.2946 4.14873 15.3597 4.03892L15.3645 4.02937Z" fill="#1E3250"/>
<defs>
<linearGradient id="paint0_linear_68_1509" x1="0.000305199" y1="11.9259" x2="43.4226" y2="11.9259" gradientUnits="userSpaceOnUse">
<stop stop-color="#1E3250"/>
<stop offset="0.5" stop-color="#1E3250" stop-opacity="0"/>
<stop offset="1" stop-color="#1E3250"/>
</linearGradient>
</defs>
</svg>
