<svg width="202" height="30" viewBox="0 0 202 30" fill="none" xmlns="http://www.w3.org/2000/svg">
<path d="M81.0488 25.2335V4.30251C81.0684 1.94574 85.0293 1.91319 85.0293 4.30251V23.5148C85.0293 24.8689 85.316 26.0473 87.0619 25.7478C93.4659 24.2114 93.9675 23.059 95.9871 20.2335C97.7656 17.2582 100.639 18.8728 99.6288 21.1124C98.1239 24.1983 96.0718 26.2231 94.5603 27.1606C93.1271 28.0525 88.2541 29.9536 86.0652 29.9536C83.6482 29.9536 81.0488 29.2374 81.0488 25.227V25.2335Z" fill="white"/>
<path d="M116.632 15.0977C122.782 14.6615 122.567 18.3464 128.534 18.9128C131.72 19.2123 134 18.1511 135.772 15.8334C136.424 14.9805 136.938 13.6589 136.137 13.9779C131.042 16.0092 128.326 12.0899 121.537 12.8581C119.681 13.2162 117.668 14.4141 116.632 15.1042V15.0977Z" fill="white"/>
<path d="M117.57 15.0062V4.38123C117.57 1.88123 113.857 1.88123 113.844 4.38123V27.5909C113.85 30.7419 117.57 30.7419 117.57 27.5909C117.57 26.4906 117.57 19.3617 117.57 15.0974" fill="white"/>
<path d="M157.785 4.38147V18.6263C157.785 21.4974 155.838 25.0586 151.342 26.1458C148.639 26.7317 149.375 30.332 151.623 29.9739C157.792 28.9843 161.499 23.6002 161.499 18.8606V4.38147C161.499 1.86845 157.792 1.88147 157.792 4.38147H157.785Z" fill="white"/>
<path d="M145.265 4.38135V17.897C145.265 20.4165 148.972 20.3058 148.972 17.897V4.38135C148.972 1.86833 145.265 1.88135 145.265 4.38135Z" fill="white"/>
<path d="M174.027 25.306C175.947 23.4093 177.117 21.0699 177.538 18.2877C177.968 15.4622 177.981 9.70049 178.06 6.44528C178.131 3.86716 181.773 3.85414 181.773 6.38669C181.773 8.91924 181.512 16.1914 181.128 19.3034C180.392 25.306 178.496 26.4388 176.704 27.8385C174.47 29.4531 172.235 26.8619 174.027 25.306Z" fill="white"/>
<path d="M190.536 5.36505C196.601 14.9679 196.731 17.0643 197.063 20.8013C197.115 23.6984 196.933 25.4692 196.562 26.921C195.936 29.3429 192.021 29.2843 192.542 26.6541C193.135 23.0994 193.969 22.6763 193.246 18.6658C192.132 14.0369 188.49 8.79604 187.799 7.78042C186.47 5.8338 188.816 3.63328 190.536 5.35854V5.36505Z" fill="white"/>
<path d="M192.588 2.39549L192.992 5.39679C193.285 7.59731 196.334 7.07648 196.054 4.97362L195.656 1.97231C195.37 -0.228206 192.314 0.292627 192.594 2.39549H192.588Z" fill="white"/>
<path d="M197.636 1.84259L198.034 4.8439C198.327 7.04442 201.376 6.53009 201.096 4.42723L200.692 1.42593C200.398 -0.774593 197.356 -0.25376 197.63 1.8491L197.636 1.84259Z" fill="white"/>
<path fill-rule="evenodd" clip-rule="evenodd" d="M28.2475 7.4406C42.2345 3.39763 54.3324 3.2544 55.518 7.18669C56.7428 11.2297 46 18.0461 31.5374 22.408C17.0682 26.7765 4.35801 27.0435 3.13975 23.0005C1.91499 18.9575 12.6512 12.1411 27.1204 7.77263C10.8271 12.688 -1.26419 20.3703 0.110412 24.9211C1.48502 29.4718 16.0128 30.1359 32.3061 25.214C48.5994 20.2922 60.4823 11.6593 59.1076 7.10206C57.7656 2.65544 44.0652 2.84424 28.2475 7.43409V7.4406Z" fill="white"/>
<path d="M41.238 23.2737C41.1338 23.5732 40.4758 23.9248 40.0914 23.9248C39.44 23.9117 39.225 24.4391 39.1729 25.4157C39.3487 25.9039 41.44 25.4873 42.098 25.0511C42.5475 24.7581 43.0947 24.2698 43.238 23.6969C43.3683 23.2021 43.4465 22.4729 43.1599 21.568C42.567 21.8219 41.9546 22.0693 41.3423 22.3232C41.3813 22.6097 41.3683 22.9156 41.2445 23.2672L41.238 23.2737Z" fill="white"/>
<path d="M46.0005 20.2657C45.4077 20.5521 44.8084 20.8321 44.1895 21.1055C45.0299 21.6394 45.2904 22.4987 45.6097 23.0782C46.9321 25.4935 48.1439 23.9375 48.1765 23.4623C48.0592 23.2344 47.5836 21.7696 47.3491 21.6524C46.8084 21.392 46.3719 20.8646 46.0005 20.2592V20.2657Z" fill="white"/>
<path d="M20.9511 5.49412C19.6351 5.30532 19.14 4.99933 18.039 3.88605C18.0064 3.03319 16.3843 1.48371 15.5895 1.72459C13.5438 1.11261 12.7751 1.31444 11.6415 1.99803C11.2116 2.14777 11.0943 3.2285 10.3972 3.42381C9.24413 3.74282 8.62523 3.62564 7.79135 4.12043C7.75226 4.166 7.60894 4.45897 7.78484 4.7259C7.98028 5.20767 8.5666 5.71548 8.74901 5.92381C8.6969 5.98892 8.26041 6.23631 8.40373 6.53579C8.57963 6.65949 9.09429 6.95897 9.12687 7.00454C9.20504 7.1022 9.41351 7.31053 9.68713 7.39517C13.1986 7.916 13.3875 6.89386 13.9803 9.49152C14.28 10.8066 14.7556 11.7116 15.7002 12.7142C15.7002 12.7142 16.1367 13.0723 15.7914 13.3001C15.5764 13.4433 15.1269 13.6712 14.5601 13.6517C13.5634 13.9121 12.3647 14.1595 11.5047 14.7389C10.4428 15.3249 10.0454 16.054 9.91515 16.4642C9.48518 18.6256 10.3516 18.8926 10.8077 18.8209C11.4266 18.7949 11.9999 18.5475 11.6937 17.3366C11.7262 16.7962 12.5145 16.2103 13.6025 16.2689C13.824 16.2819 15.1139 16.0215 15.407 15.7871C14.2083 17.1087 12.4233 17.929 12.28 19.459C12.1367 20.39 12.0129 22.4603 13.6937 22.1348C14.1432 22.0501 14.3973 22.0501 14.5536 21.2493C14.6318 20.8392 14.2865 20.6959 14.2214 20.3053C14.1693 18.7428 15.1074 18.6907 15.7198 18.4108C16.0911 18.2415 16.8207 17.6556 17.6872 17.5514C18.6709 17.4342 19.9087 17.4212 20.8924 16.8092C21.5895 17.0176 23.1856 17.0892 23.7785 17.0436C28.443 16.64 31.329 13.248 34.3258 17.623C35.1075 18.7558 36.0391 19.498 37.1727 19.9342C39.3877 19.1074 41.492 18.2285 43.4333 17.317C43.3877 17.304 43.3487 17.2975 43.3031 17.2845C40.4301 16.6139 39.8568 14.3874 38.7428 12.2129C38.9512 12.4017 39.3747 12.5384 39.9024 12.7077C45.5441 14.485 47.1011 13.2025 48.6125 11.4642C49.1272 10.8652 49.479 9.86261 48.8796 10.097C45.0685 11.5879 43.0359 8.77537 37.9675 9.34178C34.7753 7.72069 32.1499 7.64256 29.4788 7.53189C27.2899 7.44074 23.583 5.65689 20.9446 5.50715L20.9511 5.49412Z" fill="white"/>
</svg>
